<svg xmlns="http://www.w3.org/2000/svg" width="375" viewBox="0 0 375 375" height="375" version="1.0"><defs><clipPath id="a"><path d="M 40.417969 74.75 L 334.417969 74.75 L 334.417969 368.75 L 40.417969 368.75 Z M 40.417969 74.75"/></clipPath><clipPath id="b"><path d="M 87 106.390625 L 288.605469 106.390625 L 288.605469 308 L 87 308 Z M 87 106.390625"/></clipPath><clipPath id="c"><path d="M 56.253906 249 L 85 249 L 85 277 L 56.253906 277 Z M 56.253906 249"/></clipPath><clipPath id="d"><path d="M 199 316 L 228 316 L 228 344.703125 L 199 344.703125 Z M 199 316"/></clipPath><clipPath id="e"><path d="M 224 94 L 252 94 L 252 122 L 224 122 Z M 224 94"/></clipPath><clipPath id="f"><path d="M 232.945312 83.527344 L 261.121094 100.703125 L 243.941406 128.878906 L 215.765625 111.703125 Z M 232.945312 83.527344"/></clipPath><clipPath id="g"><path d="M 232.945312 83.527344 L 261.121094 100.703125 L 243.941406 128.878906 L 215.765625 111.703125 Z M 232.945312 83.527344"/></clipPath></defs><g clip-path="url(#a)"><path fill="#E6A756" d="M 141.3125 79.28125 C 141.316406 78.804688 141.371094 78.335938 141.480469 77.871094 C 141.542969 76.957031 141.859375 76.140625 142.421875 75.421875 C 142.515625 75.328125 142.625 75.253906 142.75 75.203125 C 142.96875 75.074219 143.203125 74.992188 143.457031 74.960938 C 144.121094 74.890625 144.75 75.015625 145.339844 75.328125 C 145.933594 75.640625 146.386719 76.09375 146.699219 76.683594 C 147.515625 77.835938 148.191406 79.066406 148.722656 80.378906 C 149.519531 82.664062 149.972656 85.019531 150.085938 87.4375 C 150.195312 89.855469 149.960938 92.242188 149.378906 94.59375 C 147.15625 92.613281 145.347656 90.304688 143.960938 87.667969 C 142.570312 85.03125 141.6875 82.238281 141.3125 79.28125 Z M 114.28125 113.71875 C 111.925781 111.980469 109.921875 109.90625 108.265625 107.496094 C 106.609375 105.085938 105.390625 102.472656 104.617188 99.652344 C 104.175781 98.695312 104.003906 97.695312 104.097656 96.648438 C 104.191406 95.601562 104.539062 94.648438 105.140625 93.789062 C 105.933594 93.636719 106.707031 93.691406 107.46875 93.960938 C 108.226562 94.230469 108.867188 94.671875 109.386719 95.289062 C 110.476562 96.59375 111.4375 97.988281 112.269531 99.46875 C 113.101562 100.953125 113.792969 102.5 114.339844 104.109375 C 114.890625 105.71875 115.285156 107.363281 115.53125 109.046875 C 115.777344 110.726562 115.867188 112.417969 115.800781 114.117188 C 115.722656 114.195312 115.628906 114.246094 115.523438 114.273438 C 115.070312 114.402344 114.640625 113.988281 114.28125 113.71875 Z M 76 125.097656 C 75.394531 123.988281 74.96875 122.816406 74.722656 121.578125 C 74.574219 120.949219 74.601562 120.328125 74.796875 119.714844 C 74.867188 119.519531 74.960938 119.332031 75.074219 119.160156 C 75.410156 118.640625 75.835938 118.210938 76.351562 117.875 C 76.625 117.703125 76.917969 117.582031 77.234375 117.511719 C 77.550781 117.4375 77.867188 117.417969 78.1875 117.449219 C 78.507812 117.484375 78.816406 117.566406 79.109375 117.703125 C 79.402344 117.835938 79.667969 118.015625 79.902344 118.238281 C 82.683594 120.132812 84.789062 122.601562 86.222656 125.648438 C 87.578125 128.742188 88.429688 131.972656 88.773438 135.332031 C 86.09375 134.460938 83.652344 133.144531 81.453125 131.382812 C 79.253906 129.621094 77.4375 127.527344 76 125.097656 Z M 53.117188 153.234375 C 53.929688 153.167969 54.742188 152.882812 55.238281 153.167969 C 56.875 153.863281 58.359375 154.796875 59.695312 155.972656 C 61.03125 157.148438 62.148438 158.5 63.046875 160.035156 C 61.980469 160.011719 60.9375 159.835938 59.917969 159.507812 C 58.902344 159.179688 57.953125 158.714844 57.070312 158.113281 C 56.1875 157.507812 55.410156 156.792969 54.738281 155.960938 C 54.066406 155.132812 53.523438 154.222656 53.117188 153.234375 Z M 79.609375 293.371094 C 79.6875 293.445312 79.738281 293.539062 79.761719 293.644531 C 79.890625 294.105469 79.480469 294.53125 79.203125 294.886719 C 77.46875 297.242188 75.394531 299.246094 72.984375 300.902344 C 70.574219 302.5625 67.960938 303.777344 65.140625 304.554688 C 64.183594 304.992188 63.183594 305.164062 62.136719 305.070312 C 61.089844 304.976562 60.136719 304.628906 59.277344 304.027344 C 59.121094 303.234375 59.179688 302.460938 59.449219 301.699219 C 59.71875 300.941406 60.160156 300.300781 60.777344 299.78125 C 62.085938 298.691406 63.476562 297.730469 64.960938 296.898438 C 66.441406 296.066406 67.988281 295.375 69.597656 294.828125 C 71.207031 294.277344 72.855469 293.882812 74.535156 293.636719 C 76.21875 293.390625 77.910156 293.304688 79.609375 293.371094 Z M 90.585938 333.160156 C 89.476562 333.765625 88.304688 334.191406 87.0625 334.441406 C 86.4375 334.585938 85.820312 334.5625 85.207031 334.363281 C 85.007812 334.296875 84.824219 334.203125 84.652344 334.089844 C 84.128906 333.753906 83.703125 333.328125 83.363281 332.8125 C 83.195312 332.539062 83.074219 332.242188 83 331.929688 C 82.929688 331.613281 82.90625 331.296875 82.941406 330.972656 C 82.972656 330.652344 83.058594 330.347656 83.191406 330.050781 C 83.328125 329.757812 83.507812 329.496094 83.730469 329.261719 C 85.625 326.480469 88.09375 324.371094 91.140625 322.941406 C 94.234375 321.585938 97.460938 320.734375 100.824219 320.386719 C 99.953125 323.070312 98.636719 325.511719 96.871094 327.714844 C 95.109375 329.914062 93.015625 331.734375 90.585938 333.167969 Z M 118.722656 356.054688 C 118.65625 355.242188 118.371094 354.429688 118.65625 353.933594 C 119.351562 352.296875 120.289062 350.8125 121.460938 349.476562 C 122.636719 348.140625 123.988281 347.023438 125.519531 346.121094 C 125.496094 347.191406 125.324219 348.234375 124.996094 349.25 C 124.667969 350.265625 124.203125 351.21875 123.601562 352.097656 C 122.996094 352.980469 122.28125 353.757812 121.449219 354.429688 C 120.621094 355.105469 119.710938 355.644531 118.722656 356.054688 Z M 156.964844 365.671875 C 156.617188 366.074219 156.179688 366.320312 155.652344 366.402344 C 155.589844 366.414062 155.527344 366.414062 155.46875 366.402344 L 155.445312 366.402344 C 155.394531 366.394531 155.34375 366.375 155.296875 366.347656 L 155.152344 366.253906 C 154.78125 365.953125 154.5625 365.5625 154.492188 365.089844 C 154.449219 362.378906 155.0625 359.828125 156.339844 357.433594 C 156.617188 356.972656 157.160156 356.695312 157.894531 356.054688 C 158.441406 357.648438 158.632812 359.285156 158.472656 360.964844 C 158.308594 362.640625 157.808594 364.210938 156.964844 365.671875 Z M 233.347656 364.398438 C 233.339844 364.875 233.285156 365.347656 233.175781 365.808594 C 233.113281 366.722656 232.800781 367.539062 232.234375 368.257812 C 232.140625 368.351562 232.03125 368.421875 231.90625 368.472656 C 231.6875 368.605469 231.453125 368.6875 231.199219 368.71875 C 230.535156 368.789062 229.90625 368.667969 229.3125 368.355469 C 228.722656 368.039062 228.269531 367.585938 227.957031 366.996094 C 227.140625 365.84375 226.464844 364.609375 225.933594 363.300781 C 225.136719 361.015625 224.683594 358.660156 224.570312 356.242188 C 224.460938 353.824219 224.695312 351.4375 225.277344 349.085938 C 227.503906 351.070312 229.308594 353.375 230.699219 356.011719 C 232.089844 358.648438 232.972656 361.445312 233.347656 364.398438 Z M 260.375 329.964844 C 262.730469 331.699219 264.734375 333.773438 266.394531 336.183594 C 268.050781 338.59375 269.265625 341.210938 270.042969 344.03125 C 270.480469 344.984375 270.652344 345.984375 270.558594 347.03125 C 270.464844 348.078125 270.117188 349.03125 269.515625 349.894531 C 268.722656 350.046875 267.949219 349.988281 267.191406 349.71875 C 266.429688 349.449219 265.792969 349.007812 265.273438 348.390625 C 264.183594 347.085938 263.222656 345.691406 262.390625 344.210938 C 261.554688 342.726562 260.867188 341.179688 260.316406 339.570312 C 259.769531 337.960938 259.371094 336.316406 259.125 334.632812 C 258.878906 332.949219 258.792969 331.257812 258.855469 329.558594 C 258.933594 329.480469 259.027344 329.429688 259.132812 329.410156 C 259.59375 329.289062 260.019531 329.6875 260.375 329.964844 Z M 298.65625 318.582031 C 299.261719 319.691406 299.691406 320.867188 299.9375 322.105469 C 300.082031 322.730469 300.054688 323.351562 299.863281 323.964844 C 299.789062 324.160156 299.699219 324.34375 299.582031 324.519531 C 299.25 325.039062 298.824219 325.46875 298.308594 325.804688 C 298.03125 325.976562 297.738281 326.097656 297.425781 326.167969 C 297.109375 326.242188 296.792969 326.261719 296.46875 326.230469 C 296.148438 326.195312 295.84375 326.113281 295.550781 325.976562 C 295.253906 325.839844 294.992188 325.664062 294.757812 325.441406 C 291.976562 323.546875 289.871094 321.074219 288.4375 318.03125 C 287.078125 314.9375 286.226562 311.707031 285.882812 308.34375 C 288.5625 309.214844 291.003906 310.535156 293.203125 312.296875 C 295.40625 314.058594 297.222656 316.15625 298.65625 318.582031 Z M 321.539062 290.445312 C 320.730469 290.511719 319.917969 290.796875 319.417969 290.515625 C 317.785156 289.816406 316.300781 288.882812 314.964844 287.707031 C 313.628906 286.535156 312.511719 285.179688 311.609375 283.648438 C 312.675781 283.671875 313.71875 283.847656 314.738281 284.171875 C 315.753906 284.5 316.703125 284.964844 317.585938 285.570312 C 318.46875 286.171875 319.246094 286.890625 319.917969 287.71875 C 320.59375 288.550781 321.132812 289.457031 321.539062 290.445312 Z M 295.050781 150.3125 C 294.972656 150.234375 294.921875 150.144531 294.898438 150.035156 C 294.765625 149.574219 295.179688 149.148438 295.453125 148.792969 C 297.1875 146.4375 299.261719 144.433594 301.671875 142.777344 C 304.082031 141.121094 306.699219 139.902344 309.519531 139.128906 C 310.472656 138.6875 311.472656 138.515625 312.519531 138.609375 C 313.566406 138.703125 314.519531 139.050781 315.382812 139.652344 C 315.535156 140.445312 315.476562 141.21875 315.207031 141.980469 C 314.9375 142.738281 314.496094 143.378906 313.882812 143.894531 C 312.574219 144.984375 311.183594 145.945312 309.699219 146.78125 C 308.21875 147.613281 306.671875 148.304688 305.0625 148.851562 C 303.453125 149.398438 301.804688 149.796875 300.125 150.042969 C 298.441406 150.289062 296.75 150.378906 295.050781 150.3125 Z M 284.070312 110.519531 C 285.179688 109.914062 286.351562 109.484375 287.59375 109.238281 C 288.21875 109.09375 288.839844 109.121094 289.453125 109.3125 C 289.648438 109.386719 289.835938 109.480469 290.011719 109.59375 C 290.53125 109.925781 290.957031 110.351562 291.296875 110.867188 C 291.464844 111.144531 291.585938 111.4375 291.660156 111.753906 C 291.730469 112.066406 291.75 112.382812 291.71875 112.707031 C 291.6875 113.027344 291.601562 113.332031 291.464844 113.625 C 291.332031 113.921875 291.152344 114.183594 290.929688 114.417969 C 289.035156 117.199219 286.566406 119.304688 283.519531 120.738281 C 280.425781 122.097656 277.199219 122.949219 273.835938 123.292969 C 274.707031 120.609375 276.023438 118.167969 277.785156 115.96875 C 279.546875 113.765625 281.644531 111.949219 284.070312 110.515625 Z M 255.933594 87.636719 C 256.003906 88.445312 256.285156 89.257812 256.003906 89.757812 C 255.304688 91.390625 254.371094 92.878906 253.195312 94.210938 C 252.023438 95.546875 250.667969 96.664062 249.136719 97.566406 C 249.160156 96.496094 249.332031 95.453125 249.660156 94.4375 C 249.984375 93.417969 250.453125 92.46875 251.054688 91.585938 C 251.660156 90.703125 252.375 89.925781 253.207031 89.25 C 254.035156 88.578125 254.945312 88.035156 255.933594 87.628906 Z M 217.695312 78.007812 C 218.042969 77.601562 218.480469 77.359375 219.007812 77.277344 C 219.070312 77.269531 219.132812 77.269531 219.191406 77.277344 L 219.214844 77.277344 C 219.265625 77.285156 219.320312 77.304688 219.367188 77.332031 L 219.507812 77.425781 C 219.878906 77.730469 220.097656 78.117188 220.167969 78.589844 C 220.214844 81.304688 219.601562 83.863281 218.332031 86.261719 C 218.050781 86.722656 217.507812 87.003906 216.777344 87.644531 C 216.222656 86.046875 216.027344 84.40625 216.1875 82.726562 C 216.347656 81.042969 216.851562 79.46875 217.695312 78.007812 Z M 43.496094 191.476562 C 43.09375 191.125 42.847656 190.6875 42.765625 190.160156 C 42.757812 190.097656 42.757812 190.039062 42.765625 189.976562 L 42.765625 189.957031 C 42.777344 189.902344 42.796875 189.851562 42.824219 189.800781 L 42.914062 189.660156 C 43.21875 189.292969 43.605469 189.070312 44.078125 189.003906 C 46.789062 188.957031 49.34375 189.566406 51.742188 190.835938 C 52.203125 191.117188 52.480469 191.664062 53.121094 192.394531 C 51.527344 192.945312 49.890625 193.140625 48.210938 192.980469 C 46.53125 192.820312 44.960938 192.316406 43.496094 191.476562 Z M 44.769531 267.855469 C 44.292969 267.851562 43.824219 267.796875 43.359375 267.6875 C 42.449219 267.625 41.632812 267.3125 40.914062 266.75 C 40.816406 266.652344 40.746094 266.542969 40.695312 266.417969 C 40.5625 266.203125 40.480469 265.96875 40.453125 265.714844 C 40.378906 265.050781 40.5 264.421875 40.816406 263.828125 C 41.128906 263.238281 41.582031 262.785156 42.175781 262.472656 C 43.328125 261.65625 44.558594 260.980469 45.867188 260.449219 C 48.15625 259.652344 50.507812 259.199219 52.925781 259.085938 C 55.347656 258.976562 57.730469 259.210938 60.082031 259.792969 C 58.101562 262.015625 55.792969 263.824219 53.15625 265.210938 C 50.519531 266.597656 47.726562 267.480469 44.769531 267.855469 Z M 331.164062 252.203125 C 331.566406 252.554688 331.808594 252.992188 331.894531 253.519531 C 331.902344 253.578125 331.902344 253.640625 331.894531 253.703125 L 331.894531 253.722656 C 331.882812 253.777344 331.863281 253.824219 331.835938 253.875 L 331.742188 254.019531 C 331.441406 254.390625 331.050781 254.609375 330.578125 254.675781 C 327.867188 254.722656 325.316406 254.105469 322.925781 252.832031 C 322.460938 252.550781 322.183594 252.007812 321.539062 251.273438 C 323.136719 250.730469 324.773438 250.535156 326.453125 250.699219 C 328.132812 250.859375 329.703125 251.363281 331.164062 252.203125 Z M 329.886719 175.820312 C 330.363281 175.828125 330.835938 175.886719 331.296875 175.992188 C 332.210938 176.054688 333.027344 176.367188 333.75 176.933594 C 333.84375 177.027344 333.914062 177.136719 333.964844 177.261719 C 334.09375 177.480469 334.175781 177.71875 334.207031 177.96875 C 334.277344 178.632812 334.15625 179.261719 333.839844 179.855469 C 333.527344 180.445312 333.074219 180.898438 332.484375 181.210938 C 331.332031 182.03125 330.101562 182.703125 328.792969 183.234375 C 326.503906 184.03125 324.152344 184.484375 321.730469 184.597656 C 319.3125 184.710938 316.925781 184.472656 314.574219 183.890625 C 316.554688 181.667969 318.863281 179.859375 321.5 178.46875 C 324.136719 177.082031 326.933594 176.199219 329.886719 175.820312 Z M 329.886719 175.820312"/></g><g clip-path="url(#b)"><path fill="#F9A72C" d="M 199.667969 283.953125 C 150.640625 283.953125 110.898438 244.207031 110.898438 195.183594 C 110.898438 148.085938 147.578125 109.5625 193.929688 106.601562 C 191.90625 106.480469 189.875 106.410156 187.820312 106.410156 C 132.253906 106.410156 87.207031 151.460938 87.207031 207.027344 C 87.207031 262.59375 132.253906 307.644531 187.820312 307.644531 C 243.390625 307.644531 288.4375 262.59375 288.4375 207.027344 C 288.4375 204.976562 288.367188 202.941406 288.246094 200.921875 C 285.289062 247.273438 246.765625 283.953125 199.667969 283.953125"/></g><g clip-path="url(#c)"><path fill="#F9A72C" d="M 70.6875 249.738281 L 74.054688 260.101562 L 84.953125 260.101562 L 76.136719 266.507812 L 79.503906 276.871094 L 70.6875 270.464844 L 61.871094 276.871094 L 65.242188 266.507812 L 56.425781 260.101562 L 67.320312 260.101562 L 70.6875 249.738281"/></g><path fill="#F9A72C" d="M 93.339844 276.308594 L 94.960938 281.300781 L 100.207031 281.300781 L 95.960938 284.382812 L 97.582031 289.371094 L 93.339844 286.289062 L 89.09375 289.371094 L 90.714844 284.382812 L 86.472656 281.300781 L 91.714844 281.300781 L 93.339844 276.308594"/><path fill="#F9A72C" d="M 252.992188 306.40625 L 254.613281 311.394531 L 259.859375 311.394531 L 255.617188 314.476562 L 257.238281 319.46875 L 252.992188 316.382812 L 248.75 319.46875 L 250.371094 314.476562 L 246.125 311.394531 L 251.371094 311.394531 L 252.992188 306.40625"/><g clip-path="url(#d)"><path fill="#F9A72C" d="M 220.339844 316.386719 L 218.179688 327.21875 L 227.816406 332.617188 L 216.847656 333.914062 L 214.691406 344.746094 L 210.070312 334.714844 L 199.101562 336.011719 L 207.210938 328.515625 L 202.589844 318.484375 L 212.226562 323.882812 L 220.339844 316.386719"/></g><path fill="#F9A72C" d="M 84.480469 115.136719 L 83.054688 122.300781 L 89.425781 125.871094 L 82.171875 126.726562 L 80.746094 133.890625 L 77.691406 127.257812 L 70.4375 128.113281 L 75.800781 123.160156 L 72.746094 116.523438 L 79.117188 120.09375 L 84.480469 115.136719"/><path fill="#F9A72C" d="M 151.382812 158.34375 L 153.003906 163.332031 L 158.25 163.332031 L 154.003906 166.414062 L 155.625 171.40625 L 151.382812 168.320312 L 147.136719 171.40625 L 148.757812 166.414062 L 144.515625 163.332031 L 149.761719 163.332031 L 151.382812 158.34375"/><path fill="#F9A72C" d="M 261.011719 162.761719 C 259.320312 158.460938 255.015625 155.386719 250.25 155.078125 C 248.40625 150.464844 243.949219 147.390625 238.875 147.390625 C 238.414062 147.390625 237.800781 147.390625 237.339844 147.546875 C 235.1875 143.703125 231.191406 141.242188 226.578125 141.242188 C 219.816406 141.242188 214.28125 146.777344 214.28125 153.539062 C 214.28125 155.386719 214.589844 157.074219 215.359375 158.613281 L 209.058594 161.535156 C 208.902344 161.226562 208.902344 161.074219 208.75 160.765625 C 207.828125 158.921875 206.75 157.382812 205.214844 156 C 207.519531 154.308594 209.210938 152.003906 209.980469 149.082031 C 210.441406 147.390625 209.363281 145.703125 207.828125 145.394531 C 206.136719 144.933594 204.445312 145.855469 204.136719 147.546875 C 203.675781 149.082031 202.753906 150.464844 201.21875 151.234375 C 200.757812 151.542969 200.296875 151.695312 199.679688 151.851562 L 201.0625 146.777344 C 201.523438 145.085938 200.449219 143.394531 198.910156 143.089844 C 197.222656 142.628906 195.53125 143.703125 195.222656 145.242188 L 193.839844 150.3125 C 193.53125 150.003906 193.070312 149.542969 192.761719 149.082031 C 191.996094 147.699219 191.6875 146.007812 192.148438 144.472656 C 192.609375 142.78125 191.535156 141.089844 189.996094 140.628906 C 188.304688 140.167969 186.613281 141.242188 186.308594 142.78125 C 185.539062 145.546875 185.847656 148.46875 187.078125 151.082031 C 185.078125 151.542969 183.234375 152.3125 181.695312 153.539062 C 178.160156 156.152344 175.855469 160.148438 175.546875 164.609375 C 175.242188 168.605469 175.855469 172.601562 177.085938 176.445312 L 136.199219 195.351562 C 136.199219 195.351562 136.199219 195.351562 136.042969 195.351562 C 135.890625 195.503906 135.582031 195.65625 135.429688 195.8125 C 135.429688 195.8125 135.429688 195.8125 135.277344 195.8125 C 135.121094 195.964844 134.96875 196.117188 134.816406 196.425781 C 134.816406 196.425781 134.660156 196.578125 134.660156 196.578125 C 134.507812 196.734375 134.507812 196.886719 134.355469 197.039062 C 134.355469 197.039062 134.355469 197.195312 134.355469 197.195312 C 134.355469 197.5 134.355469 197.808594 134.355469 198.117188 L 134.355469 245.765625 C 134.355469 250.839844 138.503906 254.988281 143.578125 254.988281 L 254.246094 254.988281 C 262.703125 254.988281 269.617188 248.074219 269.617188 239.617188 L 269.617188 183.207031 C 271.464844 181.054688 272.691406 178.132812 272.691406 175.058594 C 272.691406 168.449219 267.464844 163.070312 261.011719 162.761719 Z M 181.390625 165.070312 C 181.542969 162.457031 182.925781 160.148438 185.078125 158.613281 C 186.613281 157.539062 188.304688 156.921875 190.152344 156.921875 C 190.917969 156.921875 191.6875 157.074219 192.457031 157.230469 L 197.527344 158.613281 C 199.988281 159.226562 202.140625 161.074219 203.214844 163.378906 C 204.292969 165.683594 204.292969 168.449219 203.214844 170.757812 C 200.601562 176.289062 195.992188 180.746094 190.304688 183.054688 C 189.074219 183.515625 187.539062 183.207031 186.769531 182.128906 C 182.773438 177.367188 180.929688 171.21875 181.390625 165.070312 Z M 179.238281 182.128906 C 180.003906 183.515625 180.773438 184.742188 181.851562 185.972656 C 183.695312 188.277344 186.308594 189.507812 189.074219 189.507812 C 190.304688 189.507812 191.378906 189.355469 192.457031 188.894531 C 199.527344 185.972656 205.367188 180.59375 208.597656 173.523438 C 209.519531 171.679688 209.980469 169.835938 209.980469 167.835938 L 219.203125 163.53125 C 221.199219 165.070312 223.660156 165.835938 226.425781 165.835938 C 226.886719 165.835938 227.503906 165.835938 227.964844 165.683594 C 229.960938 169.21875 233.804688 171.679688 238.109375 171.984375 C 239.800781 176.289062 244.101562 179.363281 248.867188 179.671875 C 248.867188 179.824219 249.019531 179.824219 249.019531 179.980469 C 217.664062 193.199219 183.234375 198.578125 149.109375 196.117188 Z M 140.503906 201.5 L 144.804688 201.960938 C 180.929688 205.339844 217.664062 199.808594 251.171875 185.972656 L 251.171875 211.335938 C 251.171875 215.179688 248.097656 218.253906 244.257812 218.253906 C 238.875 218.253906 233.652344 215.945312 230.113281 211.796875 C 227.808594 209.03125 224.429688 207.492188 220.890625 207.492188 C 214.742188 207.492188 209.363281 211.949219 208.289062 217.945312 C 207.671875 221.632812 204.445312 224.402344 200.601562 224.402344 L 199.066406 224.402344 C 194.148438 224.402344 189.382812 222.09375 186.460938 218.097656 C 183.695312 214.410156 179.238281 212.105469 174.472656 212.105469 C 171.707031 212.105469 169.09375 212.871094 166.785156 214.257812 L 160.945312 217.792969 C 157.101562 220.097656 152.644531 221.328125 148.035156 221.328125 C 143.882812 221.171875 140.503906 217.792969 140.503906 213.640625 Z M 140.503906 225.015625 C 142.652344 226.398438 145.265625 227.320312 148.035156 227.320312 C 153.722656 227.320312 159.253906 225.785156 164.171875 222.863281 L 170.015625 219.328125 C 171.398438 218.558594 172.933594 218.097656 174.625 218.097656 C 177.394531 218.097656 180.003906 219.480469 181.695312 221.632812 C 185.847656 227.167969 192.457031 230.394531 199.21875 230.394531 L 200.757812 230.394531 C 207.519531 230.394531 213.207031 225.628906 214.4375 219.019531 C 215.050781 215.792969 217.816406 213.488281 221.046875 213.488281 C 222.738281 213.488281 224.429688 214.257812 225.65625 215.640625 C 230.421875 221.171875 237.1875 224.246094 244.410156 224.246094 C 246.871094 224.246094 249.175781 223.480469 251.171875 222.402344 C 249.945312 230.394531 243.179688 236.542969 234.726562 236.542969 L 140.503906 236.542969 Z M 263.46875 239.617188 C 263.46875 244.691406 259.320312 248.839844 254.246094 248.839844 L 143.578125 248.839844 C 141.886719 248.839844 140.503906 247.457031 140.503906 245.765625 L 140.503906 242.691406 L 235.800781 242.691406 C 247.636719 242.691406 257.320312 233.007812 257.320312 221.171875 L 257.320312 186.894531 C 258.242188 187.203125 259.320312 187.355469 260.394531 187.355469 C 261.472656 187.355469 262.546875 187.203125 263.46875 186.894531 Z M 260.394531 181.207031 C 257.320312 181.207031 254.707031 178.902344 254.246094 175.980469 C 254.09375 175.214844 253.632812 174.445312 253.019531 173.984375 C 252.558594 173.675781 251.789062 173.371094 251.171875 173.371094 C 251.019531 173.371094 250.867188 173.371094 250.558594 173.371094 C 250.097656 173.371094 249.789062 173.523438 249.484375 173.523438 C 246.410156 173.523438 243.796875 171.21875 243.335938 168.296875 C 243.179688 167.527344 242.71875 166.761719 242.105469 166.296875 C 241.488281 165.835938 240.566406 165.683594 239.800781 165.835938 C 239.335938 165.835938 239.03125 165.992188 238.722656 165.992188 C 235.957031 165.992188 233.496094 164.148438 232.726562 161.378906 C 232.574219 160.613281 231.960938 159.84375 231.191406 159.382812 C 230.421875 159.074219 229.5 158.921875 228.730469 159.226562 C 227.964844 159.535156 227.195312 159.6875 226.425781 159.6875 C 223.042969 159.6875 220.277344 156.921875 220.277344 153.539062 C 220.277344 150.160156 223.042969 147.390625 226.425781 147.390625 C 229.191406 147.390625 231.652344 149.238281 232.421875 152.003906 C 232.726562 152.773438 233.1875 153.539062 233.957031 154 C 234.726562 154.308594 235.648438 154.464844 236.417969 154.15625 C 237.1875 153.847656 237.953125 153.695312 238.722656 153.695312 C 241.796875 153.695312 244.410156 156 244.871094 158.921875 C 245.023438 159.6875 245.484375 160.457031 246.101562 160.917969 C 246.714844 161.378906 247.636719 161.535156 248.40625 161.378906 C 248.867188 161.226562 249.175781 161.226562 249.484375 161.226562 C 252.558594 161.226562 255.167969 163.53125 255.632812 166.453125 C 255.785156 167.222656 256.246094 167.988281 256.859375 168.449219 C 257.476562 168.910156 258.398438 169.066406 259.167969 168.910156 C 259.628906 168.757812 259.933594 168.757812 260.242188 168.757812 C 263.625 168.757812 266.390625 171.523438 266.390625 174.90625 C 266.542969 178.441406 263.777344 181.207031 260.394531 181.207031 Z M 260.394531 181.207031"/><g clip-path="url(#e)"><g clip-path="url(#f)"><g clip-path="url(#g)"><path fill="#F9A72C" d="M 251.429688 111.105469 C 251.914062 110.519531 251.835938 109.652344 251.25 109.167969 L 245.207031 104.152344 L 245.925781 96.300781 C 245.933594 96.050781 245.871094 95.804688 245.753906 95.585938 C 245.375 94.894531 244.507812 94.640625 243.816406 95.015625 L 237.171875 99.25 L 229.945312 96.175781 C 229.667969 96.058594 229.359375 96.035156 229.070312 96.109375 C 228.332031 96.292969 227.886719 97.042969 228.070312 97.777344 L 230.003906 105.417969 L 224.816406 111.378906 C 224.765625 111.433594 224.722656 111.496094 224.683594 111.558594 C 224.285156 112.207031 224.488281 113.058594 225.136719 113.453125 C 225.328125 113.570312 225.546875 113.640625 225.769531 113.652344 L 233.609375 114.132812 L 237.625 120.878906 C 237.78125 121.140625 238.019531 121.34375 238.300781 121.457031 C 239.003906 121.734375 239.804688 121.390625 240.085938 120.6875 L 243.003906 113.347656 L 250.683594 111.5625 C 250.976562 111.496094 251.238281 111.335938 251.429688 111.105469 Z M 242.34375 112.085938 C 242.125 112.136719 241.945312 112.292969 241.859375 112.503906 L 238.808594 120.175781 L 234.605469 113.117188 C 234.488281 112.921875 234.28125 112.796875 234.054688 112.78125 L 225.855469 112.28125 L 231.277344 106.050781 C 231.425781 105.878906 231.480469 105.648438 231.425781 105.429688 L 229.40625 97.441406 L 236.964844 100.660156 C 237.171875 100.746094 237.414062 100.726562 237.605469 100.605469 L 244.554688 96.175781 L 243.804688 104.386719 C 243.785156 104.613281 243.875 104.832031 244.050781 104.980469 L 250.375 110.226562 Z M 242.34375 112.085938"/></g></g></g><g fill="#E6A756"><g><g><path d="M 12.265625 -8.445312 L 2.371094 -22.8125 C -0.460938 -26.929688 4.671875 -30.398438 7.539062 -26.238281 L 17.367188 -11.957031 L 28.289062 -19.476562 L 15.65625 -37.832031 C 11.742188 -43.515625 7.050781 -47.742188 0.378906 -43.34375 C -5.488281 -39.503906 -3.613281 -32.945312 -0.15625 -27.734375 L -0.738281 -27.335938 L -7.765625 -37.539062 L -18.914062 -29.867188 L 1.117188 -0.769531 Z M 12.265625 -8.445312" transform="translate(79.734 86.979)"/></g></g></g><g fill="#E6A756"><g><g><path d="M 9.523438 -3.992188 L 31.074219 -13.027344 L 22.988281 -32.324219 C 19.308594 -41.09375 12.15625 -43.398438 3.386719 -39.722656 L -9.847656 -34.175781 L -4.371094 -20.972656 C -4.371094 -20.972656 7.894531 -24.464844 4.726562 -32.445312 C 3.949219 -34.300781 2.78125 -35.402344 1.429688 -35.957031 L 1.570312 -36.605469 C 4.691406 -36.320312 7.375 -34.558594 9.039062 -30.308594 L 11.035156 -25.546875 L 3.21875 -22.269531 C -9.613281 -16.890625 -3.007812 1.261719 9.523438 -3.992188 Z M 11.746094 -24.132812 L 15.421875 -15.363281 C 16.882812 -15.679688 18.367188 -14.945312 18.953125 -13.542969 C 19.605469 -11.988281 18.878906 -10.210938 17.324219 -9.558594 C 14.167969 -8.238281 10.796875 -12.480469 9.859375 -14.859375 C 8.523438 -18.1875 9.351562 -21.832031 11.746094 -24.132812 Z M 11.746094 -24.132812" transform="translate(107.758 67.5)"/></g></g></g><g fill="#E6A756"><g><g><path d="M 5.855469 -37.289062 C 0.207031 -36.144531 -5.863281 -34.078125 -4.722656 -26.824219 C -3.007812 -15.636719 13.957031 -21.410156 16.714844 -10.824219 C 17.515625 -6.050781 14.449219 -4.484375 10.371094 -3.546875 L 10.09375 -4.101562 C 11.792969 -5.554688 12.769531 -7.304688 12.089844 -10.382812 C 10.144531 -19.414062 -1.566406 -15.375 -1.566406 -15.375 L 1.535156 -0.367188 L 21.507812 -4.417969 C 27.792969 -5.695312 29.613281 -10.113281 29.472656 -14.078125 C 29.3125 -18.703125 26.351562 -21.539062 20.898438 -23.261719 C 16.867188 -24.550781 9.636719 -25.746094 8.769531 -30.835938 C 7.980469 -35.28125 11.960938 -37.53125 15.839844 -38.09375 L 16.0625 -37.53125 C 14.40625 -36.140625 13.238281 -34.515625 13.90625 -31.492188 C 15.753906 -22.9375 26.835938 -26.796875 26.835938 -26.796875 L 23.910156 -40.953125 Z M 5.855469 -37.289062" transform="translate(138.77 54.462)"/></g></g></g><g fill="#E6A756"><g><g><path d="M 10.324219 -0.0351562 L 33.695312 -0.117188 L 33.621094 -21.039062 C 33.589844 -30.550781 27.867188 -35.421875 18.355469 -35.390625 L 4.007812 -35.339844 L 4.003906 -21.046875 C 4.003906 -21.046875 16.671875 -19.566406 16.804688 -28.15625 C 16.796875 -30.167969 16.140625 -31.632812 15.105469 -32.660156 L 15.484375 -33.207031 C 18.257812 -31.746094 20.0625 -29.089844 19.96875 -24.523438 L 19.988281 -19.363281 L 11.507812 -19.332031 C -2.402344 -19.285156 -3.261719 0.0117188 10.324219 -0.0351562 Z M 20.101562 -17.785156 L 20.132812 -8.277344 C 21.601562 -8.007812 22.695312 -6.761719 22.699219 -5.242188 C 22.703125 -3.558594 21.351562 -2.195312 19.667969 -2.1875 C 16.242188 -2.175781 14.757812 -7.386719 14.800781 -9.941406 C 14.84375 -13.53125 17.007812 -16.582031 20.101562 -17.785156 Z M 20.101562 -17.785156" transform="translate(169.096 48.006)"/></g></g></g><g fill="#E6A756"><g><g><path d="M 30.898438 -29.917969 L 8.515625 -34.378906 L 1.609375 0.265625 L 14.773438 2.890625 L 17.070312 -8.625 L 26.449219 -6.753906 C 37.910156 -4.46875 42.09375 -27.6875 30.898438 -29.917969 Z M 17.335938 -10.234375 L 20.160156 -24.410156 C 18.453125 -24.75 17.335938 -26.359375 17.675781 -28.0625 C 18.3125 -31.261719 22.222656 -31.148438 23.917969 -29.089844 C 27.503906 -24.832031 24.304688 -9.066406 17.335938 -10.234375 Z M 17.335938 -10.234375" transform="translate(202.718 47.792)"/></g></g></g><g fill="#E6A756"><g><g><path d="M 9.523438 3.992188 L 31.074219 13.027344 L 39.164062 -6.269531 C 42.839844 -15.042969 39.46875 -21.757812 30.699219 -25.4375 L 17.464844 -30.980469 L 11.890625 -17.820312 C 11.890625 -17.820312 22.980469 -11.523438 26.449219 -19.378906 C 27.226562 -21.234375 27.191406 -22.839844 26.640625 -24.191406 L 27.199219 -24.542969 C 29.191406 -22.121094 29.8125 -18.96875 27.949219 -14.800781 L 25.953125 -10.039062 L 18.132812 -13.316406 C 5.304688 -18.695312 -3.007812 -1.261719 9.523438 3.992188 Z M 25.445312 -8.546875 L 21.765625 0.226562 C 23.015625 1.042969 23.535156 2.617188 22.945312 4.019531 C 22.296875 5.574219 20.515625 6.300781 18.964844 5.652344 C 15.804688 4.328125 16.46875 -1.050781 17.507812 -3.386719 C 18.945312 -6.671875 22.125 -8.640625 25.445312 -8.546875 Z M 25.445312 -8.546875" transform="translate(234.314 53.84)"/></g></g></g><g fill="#E6A756"><g><g><path d="M 12.265625 8.445312 L 22.15625 -5.925781 C 24.992188 -10.042969 30.066406 -6.484375 27.199219 -2.320312 L 17.367188 11.957031 L 28.289062 19.476562 L 40.925781 1.125 C 44.839844 -4.5625 47.113281 -10.453125 40.625 -15.117188 C 34.945312 -19.226562 29.484375 -15.132812 25.851562 -10.046875 L 25.269531 -10.445312 L 32.296875 -20.652344 L 21.152344 -28.324219 L 1.117188 0.769531 Z M 12.265625 8.445312" transform="translate(265.374 66.634)"/></g></g></g></svg>